<svg xmlns="http://www.w3.org/2000/svg" width="1200" height="600" viewBox="0 0 1200 600">
  <rect width="1200" height="600" fill="#edf5f5"/>
  <path d="M100 300h90m820 0h90" fill="none" stroke="#c8dde2" stroke-width="12" stroke-linecap="round"/>
  <g fill="none" stroke="#023047" stroke-width="12" stroke-linecap="round" stroke-linejoin="round">
    <path d="M340 225h160m200 0h160M340 375h160m200 0h160M300 270v60m600-60v60M390 225v150m420-150v150"/>
    <rect x="470" y="195" width="260" height="210" rx="30" fill="#fff"/>
  </g>
  <g fill="#219ebc" stroke="#023047" stroke-width="12">
    <rect x="255" y="180" width="90" height="90" rx="24"/>
    <rect x="855" y="180" width="90" height="90" rx="24"/>
    <rect x="255" y="330" width="90" height="90" rx="24"/>
    <rect x="855" y="330" width="90" height="90" rx="24"/>
  </g>
  <path d="m543 250-30 30 30 30m114-60 30 30-30 30" fill="none" stroke="#219ebc" stroke-width="12" stroke-linecap="round" stroke-linejoin="round"/>
  <circle cx="600" cy="266" r="26" fill="#ffb703" stroke="#023047" stroke-width="12"/>
  <path d="M554 354v-11c0-28 20-48 46-48s46 20 46 48v11z" fill="#ffb703" stroke="#023047" stroke-width="12" stroke-linejoin="round"/>
</svg>
