<svg width="1683" height="296" viewBox="0 0 1683 296" fill="none" xmlns="http://www.w3.org/2000/svg">
<g clip-path="url(#clip0_14_44)">
<path d="M267.25 212.375L303.25 208.875C305.417 220.958 309.792 229.833 316.375 235.5C323.042 241.167 332 244 343.25 244C355.167 244 364.125 241.5 370.125 236.5C376.208 231.417 379.25 225.5 379.25 218.75C379.25 214.417 377.958 210.75 375.375 207.75C372.875 204.667 368.458 202 362.125 199.75C357.792 198.25 347.917 195.583 332.5 191.75C312.667 186.833 298.75 180.792 290.75 173.625C279.5 163.542 273.875 151.25 273.875 136.75C273.875 127.417 276.5 118.708 281.75 110.625C287.083 102.458 294.708 96.25 304.625 92C314.625 87.75 326.667 85.625 340.75 85.625C363.75 85.625 381.042 90.6667 392.625 100.75C404.292 110.833 410.417 124.292 411 141.125L374 142.75C372.417 133.333 369 126.583 363.75 122.5C358.583 118.333 350.792 116.25 340.375 116.25C329.625 116.25 321.208 118.458 315.125 122.875C311.208 125.708 309.25 129.5 309.25 134.25C309.25 138.583 311.083 142.292 314.75 145.375C319.417 149.292 330.75 153.375 348.75 157.625C366.75 161.875 380.042 166.292 388.625 170.875C397.292 175.375 404.042 181.583 408.875 189.5C413.792 197.333 416.25 207.042 416.25 218.625C416.25 229.125 413.333 238.958 407.5 248.125C401.667 257.292 393.417 264.125 382.75 268.625C372.083 273.042 358.792 275.25 342.875 275.25C319.708 275.25 301.917 269.917 289.5 259.25C277.083 248.5 269.667 232.875 267.25 212.375ZM612.625 272H572.375L556.375 230.375H483.125L468 272H428.75L500.125 88.75H539.25L612.625 272ZM544.5 199.5L519.25 131.5L494.5 199.5H544.5ZM632.5 272V88.75H710.375C729.958 88.75 744.167 90.4167 753 93.75C761.917 97 769.042 102.833 774.375 111.25C779.708 119.667 782.375 129.292 782.375 140.125C782.375 153.875 778.333 165.25 770.25 174.25C762.167 183.167 750.083 188.792 734 191.125C742 195.792 748.583 200.917 753.75 206.5C759 212.083 766.042 222 774.875 236.25L797.25 272H753L726.25 232.125C716.75 217.875 710.25 208.917 706.75 205.25C703.25 201.5 699.542 198.958 695.625 197.625C691.708 196.208 685.5 195.5 677 195.5H669.5V272H632.5ZM669.5 166.25H696.875C714.625 166.25 725.708 165.5 730.125 164C734.542 162.5 738 159.917 740.5 156.25C743 152.583 744.25 148 744.25 142.5C744.25 136.333 742.583 131.375 739.25 127.625C736 123.792 731.375 121.375 725.375 120.375C722.375 119.958 713.375 119.75 698.375 119.75H669.5V166.25ZM934.625 204.625L970.5 216C965 236 955.833 250.875 943 260.625C930.25 270.292 914.042 275.125 894.375 275.125C870.042 275.125 850.042 266.833 834.375 250.25C818.708 233.583 810.875 210.833 810.875 182C810.875 151.5 818.75 127.833 834.5 111C850.25 94.0833 870.958 85.625 896.625 85.625C919.042 85.625 937.25 92.25 951.25 105.5C959.583 113.333 965.833 124.583 970 139.25L933.375 148C931.208 138.5 926.667 131 919.75 125.5C912.917 120 904.583 117.25 894.75 117.25C881.167 117.25 870.125 122.125 861.625 131.875C853.208 141.625 849 157.417 849 179.25C849 202.417 853.167 218.917 861.5 228.75C869.833 238.583 880.667 243.5 894 243.5C903.833 243.5 912.292 240.375 919.375 234.125C926.458 227.875 931.542 218.042 934.625 204.625ZM1002.5 272V88.75H1039.5V160.875H1112V88.75H1149V272H1112V191.875H1039.5V272H1002.5ZM1188.38 272V90.25H1225.38V241.125H1317.38V272H1188.38ZM1509.12 272H1468.88L1452.88 230.375H1379.62L1364.5 272H1325.25L1396.62 88.75H1435.75L1509.12 272ZM1441 199.5L1415.75 131.5L1391 199.5H1441ZM1529 88.75H1602.25C1616.75 88.75 1627.54 89.375 1634.62 90.625C1641.79 91.7917 1648.17 94.2917 1653.75 98.125C1659.42 101.958 1664.12 107.083 1667.88 113.5C1671.62 119.833 1673.5 126.958 1673.5 134.875C1673.5 143.458 1671.17 151.333 1666.5 158.5C1661.92 165.667 1655.67 171.042 1647.75 174.625C1658.92 177.875 1667.5 183.417 1673.5 191.25C1679.5 199.083 1682.5 208.292 1682.5 218.875C1682.5 227.208 1680.54 235.333 1676.62 243.25C1672.79 251.083 1667.5 257.375 1660.75 262.125C1654.08 266.792 1645.83 269.667 1636 270.75C1629.83 271.417 1614.96 271.833 1591.38 272H1529V88.75ZM1566 119.25V161.625H1590.25C1604.67 161.625 1613.62 161.417 1617.12 161C1623.46 160.25 1628.42 158.083 1632 154.5C1635.67 150.833 1637.5 146.042 1637.5 140.125C1637.5 134.458 1635.92 129.875 1632.75 126.375C1629.67 122.792 1625.04 120.625 1618.88 119.875C1615.21 119.458 1604.67 119.25 1587.25 119.25H1566ZM1566 192.125V241.125H1600.25C1613.58 241.125 1622.04 240.75 1625.62 240C1631.12 239 1635.58 236.583 1639 232.75C1642.5 228.833 1644.25 223.625 1644.25 217.125C1644.25 211.625 1642.92 206.958 1640.25 203.125C1637.58 199.292 1633.71 196.5 1628.62 194.75C1623.62 193 1612.71 192.125 1595.88 192.125H1566Z" fill="black"/>
<path d="M21.5 44H178C181.866 44 185 47.134 185 51V99C185 102.866 181.866 106 178 106H81.5C77.634 106 74.5 109.134 74.5 113V136.5C74.5 140.366 77.634 143.5 81.5 143.5H160.5C164.366 143.5 167.5 146.634 167.5 150.5V288.5C167.5 292.366 164.366 295.5 160.5 295.5H5.5C1.63401 295.5 -1.5 292.366 -1.5 288.5V239C-1.5 235.134 1.63401 232 5.5 232H96.5C100.366 232 103.5 228.866 103.5 225V199C103.5 195.134 100.366 192 96.5 192H21.5C17.634 192 14.5 188.866 14.5 185V51C14.5 47.134 17.634 44 21.5 44Z" fill="#3DB2D1"/>
<g filter="url(#filter0_d_14_44)">
<path fill-rule="evenodd" clip-rule="evenodd" d="M133 -1C129.134 -1 126 2.13401 126 6V254V270C126 273.866 129.134 277 133 277H149C149.003 277 149.006 277 149.008 277L232 277C235.866 277 239 273.866 239 270V254C239 250.134 235.866 247 232 247L156 247V6C156 2.13401 152.866 -1 149 -1H133Z" fill="#F1843F"/>
</g>
<path d="M130.5 159C130.5 157.343 131.843 156 133.5 156H147.5C149.157 156 150.5 157.343 150.5 159V173C150.5 174.657 149.157 176 147.5 176H133.5C131.843 176 130.5 174.657 130.5 173V159Z" fill="#CFCFCF"/>
<rect x="204" y="252" width="20" height="20" rx="3" fill="#CFCFCF"/>
<path d="M130 68C130 66.3431 131.343 65 133 65H147C148.657 65 150 66.3431 150 68V82C150 83.6569 148.657 85 147 85H133C131.343 85 130 83.6569 130 82V68Z" fill="#CFCFCF"/>
<rect x="131" y="252" width="20" height="20" rx="3" fill="#CFCFCF"/>
</g>
<defs>
<filter id="filter0_d_14_44" x="124" y="-3" width="121" height="286" filterUnits="userSpaceOnUse" color-interpolation-filters="sRGB">
<feFlood flood-opacity="0" result="BackgroundImageFix"/>
<feColorMatrix in="SourceAlpha" type="matrix" values="0 0 0 0 0 0 0 0 0 0 0 0 0 0 0 0 0 0 127 0" result="hardAlpha"/>
<feOffset dx="2" dy="2"/>
<feGaussianBlur stdDeviation="2"/>
<feComposite in2="hardAlpha" operator="out"/>
<feColorMatrix type="matrix" values="0 0 0 0 0 0 0 0 0 0 0 0 0 0 0 0 0 0 0.25 0"/>
<feBlend mode="normal" in2="BackgroundImageFix" result="effect1_dropShadow_14_44"/>
<feBlend mode="normal" in="SourceGraphic" in2="effect1_dropShadow_14_44" result="shape"/>
</filter>
<clipPath id="clip0_14_44">
<rect width="1683" height="296" fill="white"/>
</clipPath>
</defs>
</svg>
