<svg width="1156" height="191" viewBox="0 0 1156 191" fill="none" xmlns="http://www.w3.org/2000/svg">
<path d="M67.75 187V109.875L0.625 3.75H44L87.125 76.25L129.375 3.75H172L104.625 110.125V187H67.75ZM180.625 36.25V3.75H215.75V36.25H180.625ZM180.625 187V54.25H215.75V187H180.625ZM236.5 54.25H256V44.25C256 33.0833 257.167 24.75 259.5 19.25C261.917 13.75 266.292 9.29167 272.625 5.875C279.042 2.375 287.125 0.625 296.875 0.625C306.875 0.625 316.667 2.125 326.25 5.125L321.5 29.625C315.917 28.2917 310.542 27.625 305.375 27.625C300.292 27.625 296.625 28.8333 294.375 31.25C292.208 33.5833 291.125 38.125 291.125 44.875V54.25H317.375V81.875H291.125V187H256V81.875H236.5V54.25ZM363.375 94.75L331.5 89C335.083 76.1667 341.25 66.6667 350 60.5C358.75 54.3333 371.75 51.25 389 51.25C404.667 51.25 416.333 53.125 424 56.875C431.667 60.5417 437.042 65.25 440.125 71C443.292 76.6667 444.875 87.125 444.875 102.375L444.5 143.375C444.5 155.042 445.042 163.667 446.125 169.25C447.292 174.75 449.417 180.667 452.5 187H417.75C416.833 184.667 415.708 181.208 414.375 176.625C413.792 174.542 413.375 173.167 413.125 172.5C407.125 178.333 400.708 182.708 393.875 185.625C387.042 188.542 379.75 190 372 190C358.333 190 347.542 186.292 339.625 178.875C331.792 171.458 327.875 162.083 327.875 150.75C327.875 143.25 329.667 136.583 333.25 130.75C336.833 124.833 341.833 120.333 348.25 117.25C354.75 114.083 364.083 111.333 376.25 109C392.667 105.917 404.042 103.042 410.375 100.375V96.875C410.375 90.125 408.708 85.3333 405.375 82.5C402.042 79.5833 395.75 78.125 386.5 78.125C380.25 78.125 375.375 79.375 371.875 81.875C368.375 84.2917 365.542 88.5833 363.375 94.75ZM410.375 123.25C405.875 124.75 398.75 126.542 389 128.625C379.25 130.708 372.875 132.75 369.875 134.75C365.292 138 363 142.125 363 147.125C363 152.042 364.833 156.292 368.5 159.875C372.167 163.458 376.833 165.25 382.5 165.25C388.833 165.25 394.875 163.167 400.625 159C404.875 155.833 407.667 151.958 409 147.375C409.917 144.375 410.375 138.667 410.375 130.25V123.25ZM600.375 187H565.25V119.25C565.25 104.917 564.5 95.6667 563 91.5C561.5 87.25 559.042 83.9583 555.625 81.625C552.292 79.2917 548.25 78.125 543.5 78.125C537.417 78.125 531.958 79.7917 527.125 83.125C522.292 86.4583 518.958 90.875 517.125 96.375C515.375 101.875 514.5 112.042 514.5 126.875V187H479.375V54.25H512V73.75C523.583 58.75 538.167 51.25 555.75 51.25C563.5 51.25 570.583 52.6667 577 55.5C583.417 58.25 588.25 61.7917 591.5 66.125C594.833 70.4583 597.125 75.375 598.375 80.875C599.708 86.375 600.375 94.25 600.375 104.5V187ZM698.25 127.375L734.25 123.875C736.417 135.958 740.792 144.833 747.375 150.5C754.042 156.167 763 159 774.25 159C786.167 159 795.125 156.5 801.125 151.5C807.208 146.417 810.25 140.5 810.25 133.75C810.25 129.417 808.958 125.75 806.375 122.75C803.875 119.667 799.458 117 793.125 114.75C788.792 113.25 778.917 110.583 763.5 106.75C743.667 101.833 729.75 95.7917 721.75 88.625C710.5 78.5417 704.875 66.25 704.875 51.75C704.875 42.4167 707.5 33.7083 712.75 25.625C718.083 17.4583 725.708 11.25 735.625 7C745.625 2.75 757.667 0.625 771.75 0.625C794.75 0.625 812.042 5.66667 823.625 15.75C835.292 25.8333 841.417 39.2917 842 56.125L805 57.75C803.417 48.3333 800 41.5833 794.75 37.5C789.583 33.3333 781.792 31.25 771.375 31.25C760.625 31.25 752.208 33.4583 746.125 37.875C742.208 40.7083 740.25 44.5 740.25 49.25C740.25 53.5833 742.083 57.2917 745.75 60.375C750.417 64.2917 761.75 68.375 779.75 72.625C797.75 76.875 811.042 81.2917 819.625 85.875C828.292 90.375 835.042 96.5833 839.875 104.5C844.792 112.333 847.25 122.042 847.25 133.625C847.25 144.125 844.333 153.958 838.5 163.125C832.667 172.292 824.417 179.125 813.75 183.625C803.083 188.042 789.792 190.25 773.875 190.25C750.708 190.25 732.917 184.917 720.5 174.25C708.083 163.5 700.667 147.875 698.25 127.375ZM965.5 187V167.125C960.667 174.208 954.292 179.792 946.375 183.875C938.542 187.958 930.25 190 921.5 190C912.583 190 904.583 188.042 897.5 184.125C890.417 180.208 885.292 174.708 882.125 167.625C878.958 160.542 877.375 150.75 877.375 138.25V54.25H912.5V115.25C912.5 133.917 913.125 145.375 914.375 149.625C915.708 153.792 918.083 157.125 921.5 159.625C924.917 162.042 929.25 163.25 934.5 163.25C940.5 163.25 945.875 161.625 950.625 158.375C955.375 155.042 958.625 150.958 960.375 146.125C962.125 141.208 963 129.25 963 110.25V54.25H998.125V187H965.5ZM1155.38 187H1120.25V119.25C1120.25 104.917 1119.5 95.6667 1118 91.5C1116.5 87.25 1114.04 83.9583 1110.62 81.625C1107.29 79.2917 1103.25 78.125 1098.5 78.125C1092.42 78.125 1086.96 79.7917 1082.12 83.125C1077.29 86.4583 1073.96 90.875 1072.12 96.375C1070.38 101.875 1069.5 112.042 1069.5 126.875V187H1034.38V54.25H1067V73.75C1078.58 58.75 1093.17 51.25 1110.75 51.25C1118.5 51.25 1125.58 52.6667 1132 55.5C1138.42 58.25 1143.25 61.7917 1146.5 66.125C1149.83 70.4583 1152.12 75.375 1153.38 80.875C1154.71 86.375 1155.38 94.25 1155.38 104.5V187Z" fill="black"/>
</svg>
